P3
# CREATOR: GIMP PNM Filter Version 1.1
64 64
255
92
150
252
92
150
252
92
150
252
92
150
252
92
150
252
92
150
252
92
150
252
92
150
252
92
150
252
108
139
223
92
150
252
92
150
252
92
150
252
92
150
252
92
150
252
92
150
252
84
134
227
92
150
252
92
150
252
92
150
252
92
150
252
92
150
252
92
150
252
92
150
252
92
150
252
92
150
252
92
150
252
108
139
223
92
150
252
92
150
252
92
150
252
92
150
252
92
150
252
92
150
252
84
134
227
92
150
252
92
150
252
92
150
252
92
150
252
92
150
252
92
150
252
92
150
252
92
150
252
84
134
227
92
150
252
92
150
252
92
150
252
92
150
252
92
150
252
92
150
252
92
150
252
92
150
252
92
150
252
84
134
227
92
150
252
92
150
252
92
150
252
92
150
252
108
139
223
92
150
252
92
150
252
92
150
252
92
150
252
92
150
252
92
150
252
92
150
252
92
150
252
84
134
227
92
150
252
92
150
252
92
150
252
108
139
223
92
150
252
92
150
252
92
150
252
92
150
252
92
150
252
84
134
227
92
150
252
92
150
252
92
150
252
92
150
252
92
150
252
92
150
252
92
150
252
92
150
252
92
150
252
92
150
252
92
150
252
108
139
223
92
150
252
92
150
252
92
150
252
92
150
252
92
150
252
84
134
227
92
150
252
92
150
252
92
150
252
92
150
252
92
150
252
92
150
252
92
150
252
92
150
252
92
150
252
84
134
227
92
150
252
92
150
252
92
150
252
92
150
252
92
150
252
92
150
252
84
134
227
92
150
252
92
150
252
84
134
227
92
150
252
92
150
252
92
150
252
92
150
252
92
150
252
92
150
252
92
150
252
92
150
252
84
134
227
92
150
252
92
150
252
84
134
227
92
150
252
92
150
252
92
150
252
92
150
252
92
150
252
92
150
252
92
150
252
92
150
252
92
150
252
92
150
252
84
134
227
92
150
252
92
150
252
92
150
252
92
150
252
92
150
252
92
150
252
92
150
252
92
150
252
108
139
223
92
150
252
92
150
252
108
139
223
92
150
252
92
150
252
92
150
252
92
150
252
92
150
252
84
134
227
92
150
252
92
150
252
92
150
252
92
150
252
92
150
252
92
150
252
92
150
252
92
150
252
84
134
227
92
150
252
92
150
252
92
150
252
92
150
252
92
150
252
92
150
252
92
150
252
84
134
227
92
150
252
92
150
252
92
150
252
92
150
252
92
150
252
92
150
252
92
150
252
92
150
252
92
150
252
92
150
252
108
139
223
92
150
252
92
150
252
92
150
252
92
150
252
92
150
252
92
150
252
92
150
252
92
150
252
92
150
252
92
150
252
92
150
252
84
134
227
92
150
252
92
150
252
84
134
227
92
150
252
92
150
252
92
150
252
92
150
252
92
150
252
92
150
252
92
150
252
108
139
223
92
150
252
92
150
252
92
150
252
92
150
252
92
150
252
92
150
252
92
150
252
92
150
252
84
134
227
92
150
252
92
150
252
92
150
252
92
150
252
92
150
252
92
150
252
92
150
252
92
150
252
92
150
252
108
139
223
92
150
252
92
150
252
92
150
252
92
150
252
92
150
252
108
139
223
92
150
252
92
150
252
92
150
252
92
150
252
92
150
252
92
150
252
92
150
252
92
150
252
92
150
252
92
150
252
92
150
252
92
150
252
92
150
252
108
139
223
92
150
252
92
150
252
92
150
252
84
134
227
92
150
252
92
150
252
92
150
252
92
150
252
92
150
252
84
134
227
92
150
252
92
150
252
92
150
252
92
150
252
92
150
252
92
150
252
92
150
252
92
150
252
92
150
252
92
150
252
92
150
252
84
134
227
92
150
252
92
150
252
92
150
252
92
150
252
84
134
227
92
150
252
92
150
252
84
134
227
92
150
252
92
150
252
92
150
252
92
150
252
92
150
252
92
150
252
84
134
227
92
150
252
92
150
252
92
150
252
84
134
227
92
150
252
92
150
252
92
150
252
92
150
252
92
150
252
92
150
252
108
139
223
92
150
252
92
150
252
92
150
252
92
150
252
84
134
227
92
150
252
92
150
252
92
150
252
108
139
223
92
150
252
84
134
227
92
150
252
92
150
252
108
139
223
92
150
252
92
150
252
92
150
252
92
150
252
92
150
252
92
150
252
92
150
252
92
150
252
84
134
227
92
150
252
92
150
252
92
150
252
92
150
252
92
150
252
108
139
223
92
150
252
92
150
252
92
150
252
92
150
252
92
150
252
84
134
227
92
150
252
92
150
252
92
150
252
92
150
252
92
150
252
92
150
252
92
150
252
92
150
252
92
150
252
92
150
252
92
150
252
92
150
252
92
150
252
92
150
252
92
150
252
84
134
227
92
150
252
92
150
252
92
150
252
92
150
252
92
150
252
92
150
252
92
150
252
92
150
252
92
150
252
84
134
227
92
150
252
92
150
252
92
150
252
92
150
252
92
150
252
92
150
252
92
150
252
92
150
252
92
150
252
92
150
252
92
150
252
92
150
252
92
150
252
92
150
252
92
150
252
92
150
252
92
150
252
92
150
252
92
150
252
84
134
227
92
150
252
92
150
252
92
150
252
84
134
227
92
150
252
92
150
252
92
150
252
92
150
252
92
150
252
92
150
252
92
150
252
92
150
252
92
150
252
84
134
227
92
150
252
92
150
252
92
150
252
92
150
252
92
150
252
92
150
252
92
150
252
92
150
252
84
134
227
92
150
252
92
150
252
92
150
252
84
134
227
92
150
252
92
150
252
92
150
252
84
134
227
92
150
252
92
150
252
92
150
252
92
150
252
92
150
252
92
150
252
92
150
252
84
134
227
92
150
252
92
150
252
84
134
227
92
150
252
92
150
252
92
150
252
92
150
252
92
150
252
84
134
227
92
150
252
92
150
252
84
134
227
92
150
252
92
150
252
92
150
252
84
134
227
92
150
252
92
150
252
92
150
252
92
150
252
92
150
252
84
134
227
92
150
252
92
150
252
92
150
252
92
150
252
92
150
252
92
150
252
92
150
252
92
150
252
92
150
252
92
150
252
108
139
223
92
150
252
108
139
223
92
150
252
92
150
252
92
150
252
92
150
252
92
150
252
108
139
223
92
150
252
92
150
252
92
150
252
108
139
223
92
150
252
92
150
252
92
150
252
92
150
252
92
150
252
92
150
252
92
150
252
92
150
252
92
150
252
92
150
252
92
150
252
92
150
252
92
150
252
92
150
252
92
150
252
92
150
252
84
134
227
92
150
252
92
150
252
92
150
252
92
150
252
92
150
252
92
150
252
92
150
252
92
150
252
84
134
227
92
150
252
92
150
252
92
150
252
92
150
252
92
150
252
92
150
252
92
150
252
92
150
252
92
150
252
92
150
252
92
150
252
108
139
223
92
150
252
92
150
252
92
150
252
92
150
252
92
150
252
92
150
252
92
150
252
84
134
227
92
150
252
92
150
252
92
150
252
92
150
252
92
150
252
92
150
252
92
150
252
92
150
252
92
150
252
84
134
227
92
150
252
92
150
252
92
150
252
92
150
252
92
150
252
84
134
227
92
150
252
92
150
252
92
150
252
92
150
252
92
150
252
92
150
252
84
134
227
92
150
252
92
150
252
92
150
252
108
139
223
92
150
252
92
150
252
92
150
252
92
150
252
108
139
223
92
150
252
92
150
252
92
150
252
92
150
252
92
150
252
92
150
252
92
150
252
92
150
252
92
150
252
92
150
252
92
150
252
92
150
252
92
150
252
92
150
252
92
150
252
92
150
252
92
150
252
92
150
252
108
139
223
92
150
252
92
150
252
92
150
252
92
150
252
92
150
252
92
150
252
92
150
252
92
150
252
92
150
252
84
134
227
92
150
252
92
150
252
92
150
252
92
150
252
92
150
252
108
139
223
92
150
252
84
134
227
92
150
252
108
139
223
92
150
252
92
150
252
92
150
252
92
150
252
92
150
252
92
150
252
84
134
227
92
150
252
92
150
252
92
150
252
92
150
252
92
150
252
84
134
227
92
150
252
92
150
252
92
150
252
92
150
252
92
150
252
92
150
252
92
150
252
92
150
252
92
150
252
84
134
227
92
150
252
92
150
252
92
150
252
92
150
252
92
150
252
92
150
252
92
150
252
108
139
223
92
150
252
92
150
252
108
139
223
92
150
252
92
150
252
92
150
252
92
150
252
92
150
252
84
134
227
92
150
252
92
150
252
92
150
252
92
150
252
92
150
252
84
134
227
92
150
252
92
150
252
84
134
227
92
150
252
92
150
252
84
134
227
92
150
252
92
150
252
92
150
252
92
150
252
92
150
252
92
150
252
92
150
252
92
150
252
92
150
252
92
150
252
92
150
252
92
150
252
92
150
252
92
150
252
92
150
252
84
134
227
92
150
252
92
150
252
92
150
252
92
150
252
92
150
252
92
150
252
92
150
252
92
150
252
92
150
252
92
150
252
92
150
252
92
150
252
92
150
252
108
139
223
92
150
252
92
150
252
84
134
227
92
150
252
92
150
252
92
150
252
92
150
252
92
150
252
84
134
227
92
150
252
92
150
252
92
150
252
92
150
252
92
150
252
92
150
252
92
150
252
92
150
252
84
134
227
92
150
252
92
150
252
92
150
252
92
150
252
92
150
252
92
150
252
84
134
227
92
150
252
92
150
252
92
150
252
92
150
252
92
150
252
92
150
252
92
150
252
92
150
252
92
150
252
92
150
252
92
150
252
92
150
252
92
150
252
108
139
223
92
150
252
84
134
227
92
150
252
92
150
252
92
150
252
92
150
252
92
150
252
84
134
227
92
150
252
92
150
252
92
150
252
92
150
252
92
150
252
92
150
252
92
150
252
92
150
252
92
150
252
84
134
227
92
150
252
92
150
252
92
150
252
108
139
223
92
150
252
92
150
252
92
150
252
92
150
252
92
150
252
92
150
252
92
150
252
92
150
252
92
150
252
92
150
252
92
150
252
92
150
252
92
150
252
92
150
252
108
139
223
92
150
252
92
150
252
84
134
227
92
150
252
92
150
252
92
150
252
92
150
252
92
150
252
108
139
223
92
150
252
92
150
252
92
150
252
92
150
252
92
150
252
92
150
252
92
150
252
92
150
252
92
150
252
92
150
252
92
150
252
92
150
252
92
150
252
92
150
252
92
150
252
108
139
223
92
150
252
92
150
252
92
150
252
92
150
252
92
150
252
92
150
252
84
134
227
92
150
252
92
150
252
92
150
252
92
150
252
92
150
252
92
150
252
92
150
252
108
139
223
92
150
252
92
150
252
108
139
223
92
150
252
92
150
252
92
150
252
92
150
252
92
150
252
92
150
252
92
150
252
84
134
227
92
150
252
92
150
252
92
150
252
92
150
252
92
150
252
92
150
252
108
139
223
92
150
252
92
150
252
92
150
252
108
139
223
92
150
252
92
150
252
92
150
252
92
150
252
92
150
252
92
150
252
92
150
252
92
150
252
92
150
252
92
150
252
92
150
252
92
150
252
84
134
227
92
150
252
92
150
252
92
150
252
108
139
223
92
150
252
84
134
227
92
150
252
92
150
252
108
139
223
92
150
252
84
134
227
92
150
252
92
150
252
92
150
252
92
150
252
92
150
252
92
150
252
92
150
252
92
150
252
92
150
252
92
150
252
92
150
252
92
150
252
92
150
252
92
150
252
92
150
252
84
134
227
92
150
252
92
150
252
92
150
252
92
150
252
92
150
252
92
150
252
92
150
252
92
150
252
108
139
223
92
150
252
92
150
252
92
150
252
92
150
252
92
150
252
92
150
252
84
134
227
92
150
252
92
150
252
92
150
252
92
150
252
92
150
252
84
134
227
92
150
252
92
150
252
92
150
252
92
150
252
84
134
227
92
150
252
92
150
252
92
150
252
84
134
227
92
150
252
92
150
252
84
134
227
92
150
252
92
150
252
92
150
252
92
150
252
92
150
252
92
150
252
92
150
252
92
150
252
92
150
252
92
150
252
92
150
252
92
150
252
92
150
252
92
150
252
92
150
252
92
150
252
92
150
252
84
134
227
92
150
252
92
150
252
84
134
227
92
150
252
92
150
252
92
150
252
92
150
252
92
150
252
92
150
252
84
134
227
92
150
252
92
150
252
92
150
252
92
150
252
92
150
252
84
134
227
92
150
252
92
150
252
92
150
252
92
150
252
92
150
252
92
150
252
84
134
227
92
150
252
92
150
252
92
150
252
92
150
252
92
150
252
92
150
252
108
139
223
92
150
252
92
150
252
92
150
252
92
150
252
92
150
252
92
150
252
92
150
252
92
150
252
92
150
252
92
150
252
92
150
252
92
150
252
92
150
252
92
150
252
92
150
252
92
150
252
92
150
252
92
150
252
92
150
252
92
150
252
108
139
223
92
150
252
92
150
252
92
150
252
92
150
252
108
139
223
92
150
252
92
150
252
92
150
252
92
150
252
108
139
223
92
150
252
92
150
252
92
150
252
92
150
252
92
150
252
92
150
252
92
150
252
92
150
252
108
139
223
92
150
252
84
134
227
92
150
252
92
150
252
92
150
252
92
150
252
92
150
252
92
150
252
92
150
252
92
150
252
92
150
252
92
150
252
84
134
227
92
150
252
92
150
252
92
150
252
92
150
252
92
150
252
92
150
252
84
134
227
92
150
252
92
150
252
92
150
252
92
150
252
92
150
252
84
134
227
92
150
252
92
150
252
92
150
252
84
134
227
92
150
252
92
150
252
92
150
252
84
134
227
92
150
252
92
150
252
92
150
252
92
150
252
92
150
252
92
150
252
92
150
252
108
139
223
92
150
252
92
150
252
92
150
252
92
150
252
84
134
227
92
150
252
92
150
252
92
150
252
92
150
252
84
134
227
92
150
252
92
150
252
92
150
252
92
150
252
92
150
252
92
150
252
92
150
252
92
150
252
92
150
252
108
139
223
92
150
252
92
150
252
92
150
252
92
150
252
92
150
252
92
150
252
92
150
252
92
150
252
108
139
223
92
150
252
92
150
252
92
150
252
84
134
227
92
150
252
92
150
252
92
150
252
92
150
252
84
134
227
92
150
252
92
150
252
92
150
252
92
150
252
92
150
252
92
150
252
92
150
252
84
134
227
92
150
252
92
150
252
92
150
252
92
150
252
92
150
252
92
150
252
92
150
252
92
150
252
92
150
252
92
150
252
92
150
252
92
150
252
108
139
223
92
150
252
84
134
227
92
150
252
92
150
252
92
150
252
92
150
252
84
134
227
92
150
252
92
150
252
92
150
252
92
150
252
92
150
252
84
134
227
92
150
252
92
150
252
92
150
252
92
150
252
92
150
252
84
134
227
92
150
252
92
150
252
84
134
227
92
150
252
92
150
252
92
150
252
92
150
252
92
150
252
92
150
252
92
150
252
92
150
252
92
150
252
108
139
223
92
150
252
92
150
252
92
150
252
84
134
227
92
150
252
92
150
252
92
150
252
92
150
252
92
150
252
92
150
252
92
150
252
92
150
252
92
150
252
92
150
252
92
150
252
108
139
223
92
150
252
92
150
252
92
150
252
92
150
252
92
150
252
92
150
252
92
150
252
92
150
252
92
150
252
84
134
227
92
150
252
92
150
252
92
150
252
108
139
223
92
150
252
92
150
252
92
150
252
92
150
252
92
150
252
92
150
252
92
150
252
92
150
252
92
150
252
92
150
252
92
150
252
92
150
252
84
134
227
92
150
252
92
150
252
92
150
252
92
150
252
92
150
252
84
134
227
92
150
252
92
150
252
92
150
252
92
150
252
92
150
252
92
150
252
92
150
252
84
134
227
92
150
252
92
150
252
92
150
252
92
150
252
92
150
252
92
150
252
92
150
252
92
150
252
92
150
252
92
150
252
92
150
252
92
150
252
92
150
252
92
150
252
92
150
252
108
139
223
92
150
252
92
150
252
92
150
252
84
134
227
92
150
252
92
150
252
92
150
252
92
150
252
92
150
252
92
150
252
92
150
252
92
150
252
84
134
227
92
150
252
92
150
252
92
150
252
92
150
252
92
150
252
92
150
252
92
150
252
92
150
252
92
150
252
92
150
252
92
150
252
92
150
252
108
139
223
92
150
252
92
150
252
84
134
227
92
150
252
92
150
252
84
134
227
92
150
252
92
150
252
92
150
252
92
150
252
92
150
252
92
150
252
92
150
252
92
150
252
92
150
252
92
150
252
92
150
252
92
150
252
92
150
252
108
139
223
92
150
252
92
150
252
92
150
252
92
150
252
84
134
227
92
150
252
108
139
223
92
150
252
92
150
252
84
134
227
92
150
252
92
150
252
92
150
252
92
150
252
92
150
252
108
139
223
92
150
252
92
150
252
92
150
252
92
150
252
92
150
252
92
150
252
92
150
252
92
150
252
92
150
252
84
134
227
92
150
252
92
150
252
84
134
227
92
150
252
92
150
252
92
150
252
92
150
252
108
139
223
92
150
252
92
150
252
108
139
223
92
150
252
92
150
252
84
134
227
92
150
252
92
150
252
92
150
252
92
150
252
92
150
252
92
150
252
92
150
252
92
150
252
92
150
252
92
150
252
92
150
252
92
150
252
92
150
252
92
150
252
92
150
252
108
139
223
92
150
252
92
150
252
92
150
252
92
150
252
92
150
252
108
139
223
92
150
252
92
150
252
92
150
252
92
150
252
92
150
252
92
150
252
92
150
252
92
150
252
92
150
252
92
150
252
92
150
252
92
150
252
92
150
252
92
150
252
92
150
252
84
134
227
92
150
252
92
150
252
92
150
252
92
150
252
84
134
227
92
150
252
92
150
252
92
150
252
108
139
223
92
150
252
92
150
252
92
150
252
92
150
252
92
150
252
92
150
252
92
150
252
92
150
252
92
150
252
92
150
252
92
150
252
92
150
252
92
150
252
92
150
252
92
150
252
92
150
252
92
150
252
92
150
252
84
134
227
92
150
252
92
150
252
84
134
227
92
150
252
92
150
252
92
150
252
92
150
252
92
150
252
92
150
252
92
150
252
92
150
252
108
139
223
92
150
252
92
150
252
92
150
252
92
150
252
84
134
227
92
150
252
92
150
252
92
150
252
92
150
252
92
150
252
92
150
252
84
134
227
92
150
252
92
150
252
92
150
252
92
150
252
84
134
227
92
150
252
92
150
252
92
150
252
84
134
227
92
150
252
92
150
252
92
150
252
92
150
252
92
150
252
92
150
252
92
150
252
92
150
252
92
150
252
92
150
252
92
150
252
92
150
252
92
150
252
92
150
252
92
150
252
92
150
252
92
150
252
92
150
252
92
150
252
92
150
252
108
139
223
92
150
252
92
150
252
84
134
227
92
150
252
92
150
252
84
134
227
92
150
252
92
150
252
92
150
252
92
150
252
92
150
252
92
150
252
92
150
252
92
150
252
92
150
252
108
139
223
92
150
252
92
150
252
108
139
223
92
150
252
92
150
252
92
150
252
92
150
252
92
150
252
84
134
227
92
150
252
92
150
252
92
150
252
92
150
252
84
134
227
92
150
252
92
150
252
92
150
252
92
150
252
92
150
252
92
150
252
84
134
227
92
150
252
92
150
252
92
150
252
92
150
252
92
150
252
92
150
252
92
150
252
92
150
252
92
150
252
92
150
252
84
134
227
92
150
252
92
150
252
92
150
252
84
134
227
92
150
252
92
150
252
84
134
227
92
150
252
92
150
252
84
134
227
92
150
252
92
150
252
108
139
223
92
150
252
92
150
252
92
150
252
92
150
252
92
150
252
92
150
252
92
150
252
92
150
252
92
150
252
92
150
252
92
150
252
92
150
252
92
150
252
92
150
252
92
150
252
92
150
252
92
150
252
92
150
252
92
150
252
92
150
252
92
150
252
92
150
252
92
150
252
84
134
227
92
150
252
92
150
252
92
150
252
92
150
252
92
150
252
92
150
252
92
150
252
92
150
252
92
150
252
92
150
252
92
150
252
84
134
227
92
150
252
92
150
252
92
150
252
92
150
252
92
150
252
92
150
252
92
150
252
84
134
227
92
150
252
92
150
252
92
150
252
108
139
223
92
150
252
92
150
252
92
150
252
92
150
252
92
150
252
92
150
252
92
150
252
92
150
252
92
150
252
92
150
252
92
150
252
92
150
252
92
150
252
92
150
252
92
150
252
92
150
252
92
150
252
84
134
227
92
150
252
92
150
252
92
150
252
92
150
252
84
134
227
92
150
252
92
150
252
92
150
252
84
134
227
92
150
252
92
150
252
84
134
227
92
150
252
92
150
252
84
134
227
92
150
252
92
150
252
84
134
227
92
150
252
92
150
252
92
150
252
92
150
252
92
150
252
92
150
252
92
150
252
92
150
252
92
150
252
92
150
252
108
139
223
92
150
252
92
150
252
92
150
252
92
150
252
92
150
252
92
150
252
92
150
252
92
150
252
92
150
252
92
150
252
84
134
227
92
150
252
92
150
252
92
150
252
92
150
252
92
150
252
92
150
252
92
150
252
92
150
252
92
150
252
84
134
227
92
150
252
92
150
252
92
150
252
108
139
223
92
150
252
92
150
252
92
150
252
92
150
252
92
150
252
108
139
223
92
150
252
92
150
252
92
150
252
92
150
252
92
150
252
92
150
252
84
134
227
92
150
252
92
150
252
92
150
252
92
150
252
92
150
252
92
150
252
92
150
252
92
150
252
92
150
252
92
150
252
92
150
252
92
150
252
92
150
252
92
150
252
92
150
252
92
150
252
92
150
252
92
150
252
92
150
252
84
134
227
92
150
252
92
150
252
84
134
227
92
150
252
92
150
252
92
150
252
92
150
252
92
150
252
84
134
227
92
150
252
92
150
252
92
150
252
108
139
223
92
150
252
92
150
252
92
150
252
92
150
252
92
150
252
92
150
252
92
150
252
108
139
223
92
150
252
92
150
252
84
134
227
92
150
252
92
150
252
92
150
252
92
150
252
92
150
252
92
150
252
92
150
252
92
150
252
92
150
252
84
134
227
92
150
252
92
150
252
92
150
252
92
150
252
84
134
227
92
150
252
92
150
252
92
150
252
92
150
252
92
150
252
92
150
252
92
150
252
92
150
252
108
139
223
92
150
252
92
150
252
92
150
252
92
150
252
92
150
252
108
139
223
92
150
252
92
150
252
92
150
252
92
150
252
92
150
252
84
134
227
92
150
252
92
150
252
92
150
252
92
150
252
92
150
252
92
150
252
92
150
252
92
150
252
92
150
252
92
150
252
84
134
227
92
150
252
92
150
252
92
150
252
92
150
252
92
150
252
92
150
252
92
150
252
84
134
227
92
150
252
92
150
252
92
150
252
92
150
252
92
150
252
92
150
252
92
150
252
92
150
252
92
150
252
92
150
252
92
150
252
92
150
252
92
150
252
108
139
223
92
150
252
92
150
252
84
134
227
92
150
252
92
150
252
92
150
252
92
150
252
92
150
252
92
150
252
92
150
252
92
150
252
92
150
252
84
134
227
92
150
252
92
150
252
92
150
252
92
150
252
92
150
252
92
150
252
92
150
252
92
150
252
84
134
227
92
150
252
92
150
252
92
150
252
92
150
252
92
150
252
108
139
223
92
150
252
92
150
252
92
150
252
92
150
252
92
150
252
84
134
227
92
150
252
92
150
252
92
150
252
92
150
252
92
150
252
84
134
227
92
150
252
92
150
252
92
150
252
92
150
252
92
150
252
108
139
223
92
150
252
92
150
252
92
150
252
92
150
252
92
150
252
92
150
252
108
139
223
92
150
252
92
150
252
84
134
227
92
150
252
92
150
252
92
150
252
84
134
227
92
150
252
92
150
252
92
150
252
92
150
252
92
150
252
92
150
252
92
150
252
92
150
252
92
150
252
92
150
252
84
134
227
92
150
252
92
150
252
92
150
252
84
134
227
92
150
252
92
150
252
92
150
252
145
99
137
194
60
46
204
57
20
194
60
46
194
60
46
194
60
46
145
99
137
92
150
252
92
150
252
92
150
252
92
150
252
84
134
227
92
150
252
92
150
252
92
150
252
92
150
252
92
150
252
108
139
223
92
150
252
92
150
252
92
150
252
92
150
252
108
139
223
92
150
252
92
150
252
92
150
252
92
150
252
92
150
252
92
150
252
92
150
252
92
150
252
92
150
252
92
150
252
84
134
227
92
150
252
92
150
252
92
150
252
92
150
252
92
150
252
92
150
252
92
150
252
92
150
252
92
150
252
92
150
252
92
150
252
92
150
252
92
150
252
92
150
252
108
139
223
92
150
252
84
134
227
92
150
252
92
150
252
92
150
252
92
150
252
92
150
252
92
150
252
92
150
252
92
150
252
92
150
252
92
150
252
92
150
252
92
150
252
145
99
137
188
66
68
220
44
4
220
44
4
220
44
4
220
44
4
220
44
4
194
60
46
172
79
94
172
79
94
172
79
94
92
150
252
92
150
252
92
150
252
92
150
252
84
134
227
92
150
252
92
150
252
92
150
252
92
150
252
92
150
252
92
150
252
92
150
252
92
150
252
92
150
252
92
150
252
92
150
252
92
150
252
92
150
252
108
139
223
92
150
252
92
150
252
84
134
227
92
150
252
92
150
252
92
150
252
92
150
252
92
150
252
92
150
252
92
150
252
84
134
227
92
150
252
92
150
252
92
150
252
84
134
227
92
150
252
92
150
252
92
150
252
92
150
252
92
150
252
92
150
252
92
150
252
92
150
252
92
150
252
84
134
227
92
150
252
92
150
252
92
150
252
108
139
223
92
150
252
92
150
252
92
150
252
92
150
252
92
150
252
164
89
113
180
71
15
180
71
15
188
62
4
223
82
17
223
82
17
188
62
4
204
78
12
196
80
64
164
89
113
164
89
113
92
150
252
92
150
252
92
150
252
92
150
252
92
150
252
92
150
252
92
150
252
92
150
252
92
150
252
84
134
227
92
150
252
92
150
252
84
134
227
92
150
252
92
150
252
84
134
227
92
150
252
92
150
252
92
150
252
92
150
252
92
150
252
92
150
252
92
150
252
92
150
252
92
150
252
92
150
252
92
150
252
108
139
223
92
150
252
92
150
252
92
150
252
92
150
252
92
150
252
92
150
252
92
150
252
92
150
252
108
139
223
92
150
252
92
150
252
92
150
252
92
150
252
92
150
252
92
150
252
92
150
252
92
150
252
92
150
252
92
150
252
92
150
252
92
150
252
84
134
227
92
150
252
92
150
252
108
139
223
140
130
76
139
113
6
139
113
6
164
122
12
251
153
59
251
153
59
164
122
12
213
133
46
200
150
120
137
150
202
124
150
215
92
150
252
84
134
227
92
150
252
92
150
252
92
150
252
92
150
252
84
134
227
92
150
252
92
150
252
92
150
252
92
150
252
92
150
252
92
150
252
92
150
252
92
150
252
92
150
252
92
150
252
92
150
252
92
150
252
84
134
227
92
150
252
92
150
252
92
150
252
92
150
252
84
134
227
92
150
252
92
150
252
92
150
252
92
150
252
92
150
252
92
150
252
84
134
227
92
150
252
92
150
252
92
150
252
92
150
252
92
150
252
92
150
252
84
134
227
92
150
252
92
150
252
84
134
227
92
150
252
92
150
252
92
150
252
108
139
223
92
150
252
92
150
252
92
150
252
92
150
252
92
150
252
92
150
252
132
118
46
213
133
46
213
133
46
153
119
9
251
153
59
251
153
59
251
153
59
164
122
12
213
133
46
251
153
59
251
153
59
237
140
52
109
148
232
92
150
252
92
150
252
92
150
252
108
139
223
92
150
252
92
150
252
92
150
252
92
150
252
92
150
252
92
150
252
92
150
252
92
150
252
92
150
252
92
150
252
92
150
252
108
139
223
92
150
252
92
150
252
92
150
252
92
150
252
92
150
252
84
134
227
92
150
252
92
150
252
92
150
252
92
150
252
92
150
252
92
150
252
84
134
227
92
150
252
92
150
252
92
150
252
92
150
252
108
139
223
92
150
252
92
150
252
92
150
252
92
150
252
92
150
252
92
150
252
92
150
252
92
150
252
92
150
252
92
150
252
92
150
252
92
150
252
84
134
227
92
150
252
92
150
252
92
150
252
108
139
223
132
118
46
213
133
46
182
130
22
139
113
6
139
113
6
251
153
59
251
153
59
251
153
59
182
130
22
182
130
22
251
153
59
251
153
59
251
153
59
109
148
232
92
150
252
92
150
252
92
150
252
92
150
252
92
150
252
92
150
252
92
150
252
108
139
223
92
150
252
84
134
227
92
150
252
92
150
252
108
139
223
92
150
252
92
150
252
92
150
252
92
150
252
92
150
252
92
150
252
92
150
252
92
150
252
92
150
252
92
150
252
92
150
252
92
150
252
84
134
227
92
150
252
92
150
252
92
150
252
92
150
252
92
150
252
92
150
252
92
150
252
92
150
252
84
134
227
92
150
252
92
150
252
92
150
252
92
150
252
92
150
252
108
139
223
92
150
252
92
150
252
84
134
227
92
150
252
92
150
252
92
150
252
92
150
252
92
150
252
92
150
252
132
118
46
139
113
6
182
130
22
251
153
59
251
153
59
251
153
59
251
153
59
164
122
12
139
113
6
139
113
6
139
113
6
139
113
6
92
150
252
92
150
252
92
150
252
92
150
252
92
150
252
92
150
252
84
134
227
92
150
252
92
150
252
92
150
252
92
150
252
92
150
252
92
150
252
92
150
252
92
150
252
92
150
252
92
150
252
84
134
227
92
150
252
92
150
252
84
134
227
92
150
252
92
150
252
92
150
252
92
150
252
92
150
252
92
150
252
92
150
252
92
150
252
92
150
252
92
150
252
92
150
252
92
150
252
108
139
223
92
150
252
92
150
252
92
150
252
92
150
252
92
150
252
84
134
227
92
150
252
92
150
252
92
150
252
92
150
252
92
150
252
92
150
252
92
150
252
92
150
252
92
150
252
84
134
227
92
150
252
92
150
252
95
135
220
98
142
214
164
142
116
251
153
59
251
153
59
251
153
59
251
153
59
237
140
52
233
146
48
233
146
48
204
142
76
98
142
214
92
150
252
92
150
252
92
150
252
84
134
227
92
150
252
92
150
252
92
150
252
92
150
252
92
150
252
92
150
252
92
150
252
92
150
252
108
139
223
92
150
252
92
150
252
84
134
227
92
150
252
92
150
252
92
150
252
92
150
252
92
150
252
92
150
252
92
150
252
108
139
223
92
150
252
92
150
252
92
150
252
92
150
252
92
150
252
92
150
252
92
150
252
108
139
223
92
150
252
92
150
252
92
150
252
92
150
252
92
150
252
84
134
227
92
150
252
92
150
252
92
150
252
92
150
252
92
150
252
84
134
227
92
150
252
92
150
252
92
150
252
92
150
252
92
150
252
92
150
252
92
150
252
92
150
252
92
150
252
108
135
158
148
126
68
196
118
20
229
88
23
182
130
22
182
130
22
182
130
22
164
142
116
146
147
147
153
150
181
92
150
252
92
150
252
92
150
252
92
150
252
92
150
252
92
150
252
92
150
252
92
150
252
92
150
252
84
134
227
92
150
252
92
150
252
92
150
252
92
150
252
92
150
252
92
150
252
92
150
252
92
150
252
92
150
252
92
150
252
92
150
252
92
150
252
92
150
252
92
150
252
92
150
252
92
150
252
84
134
227
92
150
252
92
150
252
108
139
223
92
150
252
92
150
252
92
150
252
92
150
252
92
150
252
84
134
227
92
150
252
92
150
252
92
150
252
92
150
252
92
150
252
92
150
252
108
139
223
92
150
252
92
150
252
92
150
252
92
150
252
84
134
227
92
150
252
92
150
252
92
150
252
92
150
252
92
150
252
108
135
158
124
122
60
139
113
6
153
98
15
220
44
4
139
113
6
139
113
6
164
90
4
132
114
92
108
135
158
108
135
158
108
135
158
92
150
252
92
150
252
92
150
252
92
150
252
92
150
252
108
139
223
92
150
252
92
150
252
92
150
252
92
150
252
92
150
252
84
134
227
92
150
252
92
150
252
92
150
252
92
150
252
92
150
252
92
150
252
84
134
227
92
150
252
92
150
252
108
139
223
92
150
252
92
150
252
92
150
252
92
150
252
92
150
252
92
150
252
92
150
252
92
150
252
84
134
227
92
150
252
92
150
252
92
150
252
92
150
252
92
150
252
92
150
252
92
150
252
92
150
252
92
150
252
92
150
252
92
150
252
92
150
252
92
150
252
92
150
252
92
150
252
92
150
252
92
150
252
92
150
252
108
139
223
92
150
252
95
135
220
132
118
46
139
113
6
139
113
6
153
98
15
220
44
4
153
98
15
153
98
15
204
57
20
177
81
27
139
113
6
139
113
6
139
113
6
98
142
214
92
150
252
84
134
227
92
150
252
92
150
252
92
150
252
92
150
252
92
150
252
92
150
252
108
139
223
92
150
252
92
150
252
92
150
252
92
150
252
84
134
227
92
150
252
92
150
252
92
150
252
92
150
252
92
150
252
92
150
252
92
150
252
92
150
252
84
134
227
92
150
252
92
150
252
92
150
252
84
134
227
92
150
252
92
150
252
92
150
252
92
150
252
92
150
252
84
134
227
92
150
252
92
150
252
92
150
252
84
134
227
92
150
252
92
150
252
108
139
223
92
150
252
92
150
252
84
134
227
92
150
252
92
150
252
92
150
252
92
150
252
92
150
252
92
150
252
92
150
252
139
113
6
139
113
6
139
113
6
139
113
6
153
98
15
220
44
4
220
44
4
220
44
4
220
44
4
151
73
32
139
113
6
139
113
6
139
113
6
139
113
6
98
142
214
92
150
252
92
150
252
92
150
252
92
150
252
84
134
227
92
150
252
92
150
252
92
150
252
92
150
252
92
150
252
92
150
252
92
150
252
92
150
252
92
150
252
84
134
227
92
150
252
92
150
252
92
150
252
108
139
223
92
150
252
92
150
252
92
150
252
92
150
252
92
150
252
92
150
252
92
150
252
92
150
252
92
150
252
92
150
252
92
150
252
92
150
252
92
150
252
92
150
252
92
150
252
92
150
252
92
150
252
92
150
252
92
150
252
92
150
252
92
150
252
92
150
252
92
150
252
92
150
252
92
150
252
108
139
223
92
150
252
84
134
227
92
150
252
92
150
252
251
153
59
251
153
59
183
122
28
177
81
27
219
58
12
237
140
52
220
44
4
220
44
4
236
125
43
229
88
23
188
62
4
153
119
9
251
153
59
251
153
59
92
150
252
92
150
252
92
150
252
84
134
227
92
150
252
92
150
252
92
150
252
92
150
252
92
150
252
92
150
252
84
134
227
92
150
252
92
150
252
92
150
252
92
150
252
92
150
252
92
150
252
92
150
252
92
150
252
92
150
252
92
150
252
92
150
252
92
150
252
84
134
227
92
150
252
92
150
252
92
150
252
92
150
252
108
139
223
92
150
252
92
150
252
84
134
227
92
150
252
92
150
252
84
134
227
92
150
252
92
150
252
92
150
252
108
139
223
92
150
252
92
150
252
84
134
227
92
150
252
92
150
252
92
150
252
92
150
252
92
150
252
92
150
252
92
150
252
92
150
252
251
153
59
251
153
59
233
146
48
222
105
28
220
44
4
220
44
4
220
44
4
220
44
4
220
44
4
220
44
4
223
82
17
251
153
59
233
146
48
251
153
59
108
139
223
92
150
252
92
150
252
92
150
252
92
150
252
92
150
252
92
150
252
84
134
227
92
150
252
92
150
252
92
150
252
92
150
252
92
150
252
108
139
223
92
150
252
92
150
252
92
150
252
108
139
223
92
150
252
92
150
252
84
134
227
92
150
252
92
150
252
92
150
252
92
150
252
84
134
227
92
150
252
92
150
252
92
150
252
92
150
252
92
150
252
92
150
252
92
150
252
92
150
252
92
150
252
92
150
252
92
150
252
92
150
252
92
150
252
92
150
252
92
150
252
92
150
252
92
150
252
92
150
252
84
134
227
92
150
252
92
150
252
92
150
252
92
150
252
84
134
227
251
153
59
251
153
59
229
88
23
219
58
12
220
44
4
220
44
4
220
44
4
220
44
4
220
44
4
220
44
4
220
44
4
223
82
17
251
153
59
251
153
59
109
148
232
92
150
252
92
150
252
92
150
252
92
150
252
92
150
252
92
150
252
92
150
252
92
150
252
92
150
252
92
150
252
92
150
252
92
150
252
92
150
252
92
150
252
84
134
227
92
150
252
92
150
252
92
150
252
92
150
252
92
150
252
92
150
252
92
150
252
92
150
252
92
150
252
92
150
252
92
150
252
92
150
252
84
134
227
92
150
252
92
150
252
92
150
252
92
150
252
92
150
252
92
150
252
108
139
223
92
150
252
92
150
252
84
134
227
92
150
252
92
150
252
92
150
252
84
134
227
92
150
252
92
150
252
92
150
252
92
150
252
84
134
227
92
150
252
92
150
252
167
149
156
167
149
156
196
80
64
220
44
4
220
44
4
220
44
4
145
99
137
145
99
137
204
57
20
220
44
4
220
44
4
204
57
20
167
149
156
167
149
156
92
150
252
92
150
252
92
150
252
92
150
252
108
139
223
92
150
252
92
150
252
92
150
252
92
150
252
108
139
223
92
150
252
84
134
227
92
150
252
92
150
252
92
150
252
92
150
252
92
150
252
92
150
252
92
150
252
84
134
227
92
150
252
92
150
252
92
150
252
84
134
227
92
150
252
92
150
252
108
139
223
92
150
252
92
150
252
92
150
252
92
150
252
84
134
227
92
150
252
92
150
252
92
150
252
92
150
252
92
150
252
92
150
252
92
150
252
92
150
252
92
150
252
92
150
252
92
150
252
92
150
252
92
150
252
92
150
252
92
150
252
92
150
252
92
150
252
92
150
252
92
150
252
108
139
223
168
90
56
188
62
4
188
62
4
172
79
94
84
134
227
92
150
252
164
89
113
169
64
12
188
62
4
177
81
27
95
135
220
109
148
232
92
150
252
92
150
252
92
150
252
92
150
252
92
150
252
92
150
252
84
134
227
92
150
252
92
150
252
92
150
252
92
150
252
92
150
252
92
150
252
92
150
252
92
150
252
92
150
252
92
150
252
84
134
227
92
150
252
92
150
252
92
150
252
92
150
252
92
150
252
92
150
252
92
150
252
110
157
250
110
157
250
109
148
232
110
157
250
76
123
210
108
139
223
109
148
232
110
157
250
124
150
215
109
148
232
109
148
232
108
139
223
108
139
223
108
139
223
110
157
250
109
148
232
109
148
232
110
157
250
124
150
215
110
157
250
109
148
232
110
157
250
108
139
223
95
135
220
108
139
223
95
135
220
132
118
46
139
113
6
139
113
6
132
118
46
95
135
220
108
139
223
109
148
232
109
148
232
123
123
124
139
113
6
139
113
6
139
113
6
98
142
214
109
148
232
109
148
232
95
135
220
95
135
220
108
139
223
110
157
250
110
157
250
124
150
215
110
157
250
108
139
223
108
139
223
108
139
223
109
148
232
110
157
250
109
148
232
109
148
232
110
157
250
110
157
250
124
150
215
110
157
250
109
148
232
95
135
220
95
135
220
108
139
223
110
157
250
252
187
174
243
179
163
252
187
174
243
179
163
4
2
4
192
73
12
234
151
124
252
187
174
252
187
174
252
187
174
252
187
174
192
73
12
204
78
12
234
151
124
252
187
174
252
187
174
252
187
174
252
187
174
252
187
174
252
187
174
243
179
163
252
187
174
188
140
128
24
12
6
192
73
12
139
113
6
139
113
6
139
113
6
139
113
6
153
98
15
204
78
12
204
78
12
243
179
163
252
187
174
180
142
68
139
113
6
139
113
6
139
113
6
139
113
6
243
179
163
252
187
174
115
86
80
72
30
8
207
89
26
252
187
174
243
179
163
252
187
174
252
187
174
228
131
92
192
73
12
209
93
45
252
187
174
252
187
174
252
187
174
252
187
174
243
179
163
252
187
174
252
187
174
252
187
174
252
187
174
40
29
19
135
53
13
220
125
83
252
187
174
204
78
12
204
78
12
204
78
12
192
73
12
4
2
4
228
174
164
212
102
49
204
78
12
204
78
12
204
78
12
192
73
12
4
2
4
227
166
155
220
115
69
204
78
12
204
78
12
204
78
12
204
78
12
204
78
12
204
78
12
204
78
12
204
78
12
152
60
12
24
12
6
252
187
174
204
78
12
192
73
12
192
73
12
192
73
12
152
60
12
8
11
15
252
187
174
204
78
12
204
78
12
192
73
12
192
73
12
192
73
12
192
73
12
192
73
12
204
78
12
204
78
12
87
35
4
77
58
52
244
171
151
204
78
12
204
78
12
204
78
12
204
78
12
102
39
4
77
58
52
244
171
151
204
78
12
204
78
12
204
78
12
204
78
12
204
78
12
204
78
12
204
78
12
204
78
12
204
78
12
24
12
6
155
117
108
228
141
108
204
78
12
192
73
12
204
78
12
204
78
12
192
73
12
4
2
4
228
174
164
212
102
49
204
78
12
192
73
12
204
78
12
192
73
12
4
2
4
227
166
155
211
111
63
204
78
12
192
73
12
204
78
12
192
73
12
204
78
12
192
73
12
204
78
12
192
73
12
152
60
12
24
12
6
252
187
174
204
78
12
204
78
12
204
78
12
204
78
12
152
60
12
24
12
6
252
187
174
207
89
26
192
73
12
204
78
12
204
78
12
204
78
12
204
78
12
204
78
12
192
73
12
204
78
12
87
35
4
90
69
66
244
171
151
204
78
12
192
73
12
204
78
12
192
73
12
102
39
4
77
58
52
244
171
151
204
78
12
192
73
12
204
78
12
192
73
12
204
78
12
204
78
12
192
73
12
204
78
12
192
73
12
37
15
4
164
125
115
228
141
108
204
78
12
204
78
12
192
73
12
204
78
12
192
73
12
4
2
4
228
174
164
212
102
49
204
78
12
204
78
12
204
78
12
192
73
12
4
2
4
227
166
155
212
102
49
204
78
12
192
73
12
204
78
12
204
78
12
192
73
12
204
78
12
204
78
12
204
78
12
135
53
13
22
18
15
252
187
174
207
89
26
192
73
12
204
78
12
192
73
12
169
64
12
8
11
15
252
187
174
204
78
12
204
78
12
204
78
12
192
73
12
204
78
12
192
73
12
204
78
12
204
78
12
192
73
12
87
35
4
77
58
52
244
171
151
204
78
12
204
78
12
192
73
12
204
78
12
87
35
4
77
58
52
244
171
151
204
78
12
204
78
12
192
73
12
204
78
12
204
78
12
192
73
12
204
78
12
204
78
12
204
78
12
24
12
6
164
125
115
228
131
92
204
78
12
204
78
12
204
78
12
192
73
12
192
73
12
4
2
4
228
174
164
136
80
60
152
60
12
204
78
12
192
73
12
204
78
12
4
2
4
227
166
155
211
111
63
204
78
12
204
78
12
192
73
12
204
78
12
204
78
12
204
78
12
192
73
12
204
78
12
152
60
12
24
12
6
252
187
174
108
47
17
188
62
4
204
78
12
192
73
12
152
60
12
24
12
6
252
187
174
207
89
26
192
73
12
204
78
12
204
78
12
192
73
12
204
78
12
192
73
12
204
78
12
204
78
12
87
35
4
90
69
66
227
166
155
102
39
4
204
78
12
204
78
12
204
78
12
102
39
4
77
58
52
244
171
151
204
78
12
192
73
12
204
78
12
204
78
12
192
73
12
204
78
12
192
73
12
204
78
12
192
73
12
37
15
4
164
125
115
184
124
104
121
46
6
192
73
12
204
78
12
204
78
12
192
73
12
4
2
4
217
141
116
58
37
18
72
30
8
152
60
12
135
53
13
135
53
13
54
19
4
228
174
164
212
102
49
204
78
12
192
73
12
204
78
12
204
78
12
192
73
12
204
78
12
204
78
12
192
73
12
152
60
12
24
12
6
234
151
124
8
11
15
121
46
6
152
60
12
152
60
12
121
46
6
72
30
8
252
187
174
204
78
12
204
78
12
192
73
12
204
78
12
204
78
12
204
78
12
204
78
12
192
73
12
204
78
12
87
35
4
79
49
38
199
135
116
4
2
4
135
53
13
135
53
13
135
53
13
102
39
4
119
71
54
244
171
151
204
78
12
204
78
12
192
73
12
204
78
12
204
78
12
204
78
12
204
78
12
192
73
12
204
78
12
37
15
4
164
89
113
136
88
72
37
15
4
204
78
12
192
73
12
204
78
12
192
73
12
4
2
4
188
86
36
72
30
8
22
18
15
24
12
6
22
18
15
37
15
4
180
71
15
244
171
151
211
111
63
204
78
12
204
78
12
192
73
12
204
78
12
204
78
12
192
73
12
204
78
12
204
78
12
135
53
13
24
12
6
196
80
64
37
15
4
22
18
15
22
18
15
22
18
15
56
27
12
177
81
27
252
187
174
204
78
12
204
78
12
204
78
12
192
73
12
204
78
12
192
73
12
204
78
12
204
78
12
192
73
12
87
35
4
72
30
8
180
71
15
22
18
15
37
15
4
22
18
15
37
15
4
108
47
17
199
104
57
244
171
151
192
73
12
204
78
12
204
78
12
192
73
12
204
78
12
192
73
12
204
78
12
204
78
12
192
73
12
37
15
4
135
53
13
123
57
27
24
12
6
204
78
12
204
78
12
192
73
12
192
73
12
4
2
4
228
174
164
252
187
174
252
187
174
252
187
174
252
187
174
252
187
174
4
2
4
227
166
155
211
111
63
204
78
12
192
73
12
204
78
12
192
73
12
204
78
12
204
78
12
192
73
12
204
78
12
152
60
12
24
12
6
252
187
174
252
187
174
252
187
174
252
187
174
252
187
174
198
146
134
24
12
6
252
187
174
188
86
36
204
78
12
192
73
12
204
78
12
192
73
12
204
78
12
192
73
12
204
78
12
204
78
12
87
35
4
90
69
66
252
187
174
252
187
174
252
187
174
252
187
174
252
187
174
115
86
80
77
58
52
243
179
163
204
78
12
192
73
12
204
78
12
204
78
12
192
73
12
204
78
12
192
73
12
204
78
12
204
78
12
24
12
6
164
125
115
252
187
174
252
187
174
192
73
12
204
78
12
204
78
12
192
73
12
4
2
4
228
174
164
212
102
49
204
78
12
204
78
12
204
78
12
196
80
64
4
2
4
227
166
155
211
111
63
204
78
12
204
78
12
204
78
12
204
78
12
192
73
12
204
78
12
204
78
12
192
73
12
152
60
12
24
12
6
252
187
174
207
89
26
204
78
12
204
78
12
204
78
12
152
60
12
8
11
15
252
187
174
204
78
12
204
78
12
204
78
12
192
73
12
204
78
12
204
78
12
204
78
12
192
73
12
204
78
12
72
30
8
90
69
66
244
171
151
204
78
12
204
78
12
207
89
26
204
78
12
102
39
4
77
58
52
244
171
151
204
78
12
204
78
12
192
73
12
204
78
12
204
78
12
204
78
12
204
78
12
192
73
12
204
78
12
37
15
4
164
125
115
228
141
108
204
78
12
204
78
12
192
73
12
204
78
12
188
62
4
4
2
4
228
174
164
212
102
49
204
78
12
192
73
12
204
78
12
192
73
12
4
2
4
227
166
155
212
102
49
192
73
12
204
78
12
192
73
12
204
78
12
204
78
12
192
73
12
204
78
12
204
78
12
135
53
13
22
18
15
252
187
174
204
78
12
204
78
12
204
78
12
204
78
12
152
60
12
22
18
15
252
187
174
207
89
26
192
73
12
204
78
12
204
78
12
204
78
12
192
73
12
204
78
12
204
78
12
204
78
12
87
35
4
77
58
52
244
171
151
204
78
12
192
73
12
204
78
12
192
73
12
102
39
4
77
58
52
244
171
151
204
78
12
192
73
12
204
78
12
204
78
12
192
73
12
204
78
12
192
73
12
204
78
12
192
73
12
37
15
4
164
125
115
228
141
108
204
78
12
204
78
12
204
78
12
192
73
12
192
73
12
4
2
4
228
174
164
212
102
49
204
78
12
204
78
12
192
73
12
204
78
12
4
2
4
227
166
155
211
111
63
204
78
12
204
78
12
192
73
12
204
78
12
192
73
12
204
78
12
204
78
12
204
78
12
152
60
12
24
12
6
252
187
174
207
89
26
192
73
12
192
73
12
204
78
12
152
60
12
24
12
6
252
187
174
204
78
12
204
78
12
192
73
12
204
78
12
192
73
12
204
78
12
192
73
12
204
78
12
192
73
12
87
35
4
90
69
66
244
171
151
204
78
12
204
78
12
192
73
12
204
78
12
87
35
4
77
58
52
244
171
151
204
78
12
204
78
12
192
73
12
204
78
12
204
78
12
192
73
12
204
78
12
204
78
12
204
78
12
24
12
6
164
125
115
228
131
92
204
78
12
204
78
12
192
73
12
194
60
46
121
46
6
106
74
68
217
141
116
209
93
45
192
73
12
204
78
12
204
78
12
192
73
12
4
2
4
115
86
80
119
71
54
152
60
12
204
78
12
204
78
12
204
78
12
204
78
12
194
60
46
204
78
12
152
60
12
108
47
17
115
86
80
228
141
108
204
78
12
204
78
12
192
73
12
204
78
12
152
60
12
8
11
15
139
102
95
108
47
17
192
73
12
192
73
12
204
78
12
204
78
12
204
78
12
204
78
12
192
73
12
135
53
13
123
57
27
139
102
95
228
131
92
204
78
12
192
73
12
204
78
12
204
78
12
102
39
4
42
35
32
139
102
95
121
46
6
192
73
12
204
78
12
192
73
12
204
78
12
204
78
12
204
78
12
194
60
46
121
46
6
106
74
68
184
110
80
220
115
69
204
78
12
204
78
12
204
78
12
169
64
12
8
11
15
252
187
174
207
89
26
204
78
12
204
78
12
192
73
12
204
78
12
192
73
12
4
2
4
55
43
38
58
37
18
108
47
17
152
60
12
152
60
12
204
78
12
192
73
12
204
78
12
204
78
12
102
39
4
79
49
38
243
179
163
204
78
12
192
73
12
204
78
12
204
78
12
192
73
12
169
64
12
4
2
4
55
43
38
55
43
38
135
53
13
169
64
12
169
64
12
192
73
12
204
78
12
192
73
12
204
78
12
54
19
4
139
102
95
234
151
124
204
78
12
204
78
12
204
78
12
192
73
12
204
78
12
87
35
4
24
12
6
42
35
32
55
43
38
152
60
12
152
60
12
194
60
46
192
73
12
204
78
12
192
73
12
204
78
12
4
2
4
214
154
140
220
115
69
204
78
12
192
73
12
188
62
4
192
73
12
152
60
12
24
12
6
243
179
163
204
78
12
192
73
12
204
78
12
204
78
12
192
73
12
204
78
12
4
2
4
227
166
155
252
187
174
139
102
95
24
12
6
37
15
4
188
62
4
192
73
12
192
73
12
188
62
4
108
47
17
79
49
38
244
171
151
204
78
12
204
78
12
192
73
12
204
78
12
204
78
12
152
60
12
8
11
15
252
187
174
243
179
163
79
49
38
8
11
15
87
35
4
192
73
12
188
62
4
192
73
12
192
73
12
54
19
4
139
102
95
228
141
108
204
78
12
192
73
12
204
78
12
204
78
12
204
78
12
102
39
4
77
58
52
252
187
174
243
179
163
24
12
6
24
12
6
135
53
13
192
73
12
188
62
4
192
73
12
192
73
12
24
12
6
214
154
140
220
115
69
192
73
12
204
78
12
4
2
4
4
2
4
42
35
32
252
187
174
204
78
12
204
78
12
204
78
12
192
73
12
204
78
12
204
78
12
192
73
12
4
2
4
227
166
155
212
102
49
220
130
92
252
187
174
227
166
155
4
2
4
4
2
4
4
2
4
4
2
4
115
86
80
236
162
132
192
73
12
204
78
12
192
73
12
204
78
12
204
78
12
192
73
12
169
64
12
8
11
15
252
187
174
207
89
26
227
166
155
252
187
174
155
117
108
4
2
4
4
2
4
4
2
4
4
2
4
198
146
134
220
130
92
204
78
12
204
78
12
204
78
12
192
73
12
204
78
12
194
60
46
87
35
4
77
58
52
244
171
151
204
78
12
252
187
174
252
187
174
77
58
52
4
2
4
4
2
4
4
2
4
4
2
4
243
179
163
209
93
45
204
78
12
204
78
12
192
73
12
228
174
164
155
117
108
40
29
19
252
187
174
192
73
12
192
73
12
204
78
12
204
78
12
192
73
12
204
78
12
192
73
12
4
2
4
227
166
155
211
111
63
204
78
12
204
78
12
209
93
45
228
174
164
243
179
163
228
174
164
77
58
52
115
86
80
236
162
132
204
78
12
204
78
12
204
78
12
192
73
12
204
78
12
192
73
12
152
60
12
24
12
6
252
187
174
204
78
12
204
78
12
204
78
12
220
125
83
228
174
164
228
174
164
243
179
163
8
11
15
198
146
134
220
125
83
204
78
12
192
73
12
204
78
12
204
78
12
192
73
12
204
78
12
102
39
4
77
58
52
244
171
151
204
78
12
204
78
12
207
89
26
228
141
108
243
179
163
228
174
164
214
154
140
4
2
4
252
187
174
209
93
45
192
73
12
204
78
12
204
78
12
212
102
49
135
53
13
42
35
32
252
187
174
204
78
12
204
78
12
192
73
12
204
78
12
204
78
12
180
71
15
37
15
4
4
2
4
227
166
155
211
111
63
192
73
12
204
78
12
204
78
12
212
102
49
212
102
49
212
102
49
72
30
8
115
86
80
236
162
132
204
78
12
192
73
12
204
78
12
204
78
12
204
78
12
135
53
13
37
15
4
8
11
15
252
187
174
207
89
26
204
78
12
192
73
12
207
89
26
209
93
45
212
102
49
212
102
49
24
12
6
188
140
128
220
125
83
204
78
12
204
78
12
192
73
12
204
78
12
204
78
12
72
30
8
24
12
6
79
49
38
243
179
163
204
78
12
192
73
12
204
78
12
209
93
45
199
104
57
212
102
49
184
92
48
4
2
4
243
179
163
209
93
45
204
78
12
192
73
12
204
78
12
87
35
4
102
39
4
151
73
32
243
179
163
87
35
4
87
35
4
87
35
4
72
30
8
87
35
4
72
30
8
4
2
4
121
46
6
211
111
63
123
57
27
87
35
4
87
35
4
72
30
8
87
35
4
72
30
8
87
35
4
102
39
4
184
110
80
214
154
140
72
30
8
87
35
4
72
30
8
72
30
8
87
35
4
54
19
4
24
12
6
121
46
6
220
125
83
87
35
4
72
30
8
87
35
4
72
30
8
87
35
4
87
35
4
72
30
8
121
46
6
214
154
140
153
103
84
72
30
8
87
35
4
72
30
8
72
30
8
87
35
4
24
12
6
54
19
4
151
73
32
211
111
63
72
30
8
87
35
4
72
30
8
87
35
4
72
30
8
87
35
4
87
35
4
121
46
6
243
179
163
105
58
32
87
35
4
87
35
4
72
30
8
90
69
66
136
88
72
220
125
83
243
179
163
4
2
4
54
19
4
77
58
52
90
69
66
90
69
66
90
69
66
90
69
66
192
73
12
192
73
12
119
71
54
90
69
66
90
69
66
90
69
66
90
69
66
90
69
66
90
69
66
180
102
68
234
151
124
188
140
128
4
2
4
72
30
8
90
69
66
90
69
66
90
69
66
90
69
66
119
71
54
204
78
12
204
78
12
90
69
66
90
69
66
90
69
66
90
69
66
90
69
66
90
69
66
90
69
66
211
111
63
244
171
151
115
86
80
24
12
6
72
30
8
90
69
66
106
74
68
90
69
66
90
69
66
151
73
32
204
78
12
192
73
12
90
69
66
90
69
66
90
69
66
90
69
66
90
69
66
90
69
66
106
74
68
220
115
69
252
187
174
40
29
19
37
15
4
79
49
38
90
69
66
